<svg preserveAspectRatio="xMidYMid meet" data-bbox="28.888 20 142.223 160" xmlns="http://www.w3.org/2000/svg" width="200" height="200" viewBox="28.888 20 142.223 160" data-type="color" role="presentation" aria-hidden="true" aria-labelledby="svgcid-4w354ea4e29g"><defs><style>#comp-l2xiberr2__item-l2xdl72x svg [data-color="1"] {fill: #CEA980;}</style></defs><title id="svgcid-4w354ea4e29g"></title>
    <g>
        <path fill="#b4a189" clip-rule="evenodd" fill-rule="evenodd" d="M114.667 140.444l14.889 20.444.222.222L102.222 180v-30.444l12.445-9.112zm-31.556-1.555l12.444 8.889v32l-30.222-21.333 17.778-19.556zm47.111-9.778L164 137.778l-28.667 19.556c0-.222-.222-.222-.222-.444L120 136.444l10.222-7.333zm-60.444 0l8 5.778-18 19.556L36 137.778l33.778-8.667zM60 105.333v9.778c0 3.333 1.111 6.444 3.333 8.667l-32.889 8.444c-.889-1.778-1.556-4-1.556-6.444v-20.444H60zm80 0l31.111.222v20.222c0 2.222-.667 4.444-1.778 6.444L136.667 124c2-2.222 3.111-5.111 3.333-8.222v-10.445zm31.111-38.889v32.444L140 98.667V77.556l31.111-11.112zm-142.222 0L60 77.333v21.111l-31.111.444V66.444zm142.222-33.111v26.222L140 70.444v-1.556c0-5.333-2.222-10.444-5.556-14l34-29.778c1.556 2.223 2.667 5.112 2.667 8.223zM31.556 25.111l34 29.778C62.222 58.444 60 63.111 60 68.222v2.223L28.889 59.556V33.333c0-3.111 1.111-6 2.667-8.222zM96.667 20v28.889H80c-3.111 0-6.222.667-8.889 2l-34-29.778C38.667 20.444 40.444 20 42.222 20h54.445zm61.111 0c1.778 0 3.556.444 5.111 1.111l-34 29.778c-2.667-1.333-5.556-2-8.889-2h-16.667V20h54.445z" data-color="1"></path>
        <path fill="#b4a189" clip-rule="evenodd" fill-rule="evenodd" d="M100 121.111l21.556 6-20.222 14c-.667.444-1.778.444-2.444 0l-20.222-14 21.332-6zM66.667 78.667l8.667 2.889c4 1.333 6.667 5.111 6.667 9.333l.222 21.333c0 2.444 1.778 4.667 4.222 5.333l1.333.445-16.222 4.222C68.444 119.778 66.667 116 66.667 112V78.667zm66.666 0v33.556c0 4-1.778 7.778-4.889 10.222l-16.222-4.667 1.333-.444c2.444-.667 4.222-2.889 4.222-5.333L118 90.667c0-4.222 2.667-8 6.667-9.333l8.666-2.667zM120 55.556c7.333 0 13.333 6 13.333 13.333v2.667l-10.889 3.778c-6.667 2.222-11.111 8.444-11.111 15.556l-.222 18.444c0 .889-.667 1.778-1.556 2.222L100 114.222l-9.556-2.667c-.889-.222-1.556-.889-1.556-1.778v-.222l-.222-18.667c0-6.889-4.444-13.111-11.111-15.556l-10.889-3.778v-2.667c0-7.333 6-13.333 13.333-13.333H120z" data-color="1"></path>
    </g>
</svg>