<svg preserveAspectRatio="xMidYMid meet" data-bbox="40 20 119.999 160" viewBox="40 20 119.999 160" height="200" width="200" xmlns="http://www.w3.org/2000/svg" data-type="color" role="presentation" aria-hidden="true" aria-labelledby="svgcid--nu7p1j-xruqkt"><defs><style>#comp-l2xiberr2__item-j9r9uxns svg [data-color="1"] {fill: #CEA980;}</style></defs><title id="svgcid--nu7p1j-xruqkt"></title>
    <g>
        <path d="M89.787 68.254c-13.374 0-24.255-10.823-24.255-24.127S76.413 20 89.787 20s24.255 10.823 24.255 24.127-10.88 24.127-24.255 24.127zm0-40.635c-9.151 0-16.596 7.405-16.596 16.508s7.445 16.508 16.596 16.508 16.596-7.405 16.596-16.508-7.445-16.508-16.596-16.508z" fill="#112F5B" data-color="1"></path>
        <path d="M84.681 180C60.044 180 40 160.062 40 135.556c0-18.204 10.96-34.38 27.923-41.211 1.96-.789 4.194.151 4.987 2.102a3.803 3.803 0 0 1-2.112 4.961c-14.056 5.66-23.137 19.064-23.137 34.149 0 20.306 16.608 36.825 37.021 36.825 19.451 0 35.678-15.106 36.941-34.39.138-2.1 1.954-3.688 4.071-3.554 2.11.137 3.71 1.95 3.572 4.049C127.741 161.765 108.156 180 84.681 180z" fill="#112F5B" data-color="1"></path>
        <path d="M135.745 119.048H94.894c-2.115 0-3.83-1.705-3.83-3.81 0-2.104 1.714-3.81 3.83-3.81h40.851c3.52 0 6.383-2.848 6.383-6.349s-2.863-6.349-6.383-6.349h-25.532c-2.115 0-3.83-1.705-3.83-3.81 0-2.104 1.714-3.81 3.83-3.81h25.532c7.743 0 14.043 6.266 14.043 13.968s-6.3 13.97-14.043 13.97z" fill="#112F5B" data-color="1"></path>
        <path d="M145.957 180c-7.743 0-14.043-6.266-14.043-13.968v-10.159c0-9.103-7.445-16.508-16.596-16.508H89.787c-13.374 0-24.255-10.823-24.255-24.127V84.762c0-13.304 10.881-24.127 24.255-24.127s24.255 10.823 24.255 24.127v10.159c0 2.104-1.714 3.81-3.83 3.81-2.115 0-3.83-1.705-3.83-3.81V84.762c0-9.103-7.445-16.508-16.596-16.508S73.19 75.659 73.19 84.762v30.476c0 9.103 7.445 16.508 16.596 16.508h25.532c13.374 0 24.255 10.823 24.255 24.127v10.159c0 3.501 2.863 6.349 6.383 6.349s6.383-2.848 6.383-6.349v-10.159c0-20.306-16.608-36.825-37.021-36.825-2.115 0-3.83-1.705-3.83-3.81 0-2.104 1.714-3.81 3.83-3.81 24.637 0 44.681 19.938 44.681 44.444v10.159C160 173.734 153.701 180 145.957 180z" fill="#112F5B" data-color="1"></path>
    </g>
</svg>