<svg preserveAspectRatio="xMidYMid meet" data-bbox="20 25.5 160 149.001" viewBox="20 25.5 160 149.001" height="200" width="200" xmlns="http://www.w3.org/2000/svg" data-type="color" role="presentation" aria-hidden="true">
    <g>
        <path d="M159.181 117.948c-6.745-2.54-13.388-.959-18.958 3.393-1.015.673-1.966 1.383-2.78 2.148-.329-1.068-.805-2.156-1.354-3.245-3.026-5.999-7.673-11.214-14.793-12.356-8.656-1.387-17.489 3.711-20.409 12.047-3.617 10.325 4.308 21.898 9.15 30.475l12.925 22.19.883 1.841.142-.082.082.142 1.679-1.162 22.195-12.863c8.447-5.049 21.051-11.17 23.013-21.934 1.584-8.692-3.569-17.504-11.775-20.594z" fill="#CEA980" data-color="1"></path>
        <path d="M175.407 55.988c-4.757-5.422-11.361-7.16-18.32-5.947-1.212.115-2.384.293-3.462.584.211-1.098.303-2.282.33-3.502.148-6.72-1.501-13.513-7.247-17.878-6.985-5.307-17.173-4.974-23.665 1.004-8.041 7.404-6.486 21.352-6.243 31.204l.979 25.674-.086 2.041.164-.006.006.164s.789-.09 2.027-.234l25.624-.881c9.824-.471 23.82.073 30.607-8.5 5.481-6.921 5.074-17.126-.714-23.723z" fill="#CEA980" data-color="1"></path>
        <path d="M69.202 52.257c-7.554 2.068-13.051 7.621-15.446 15.447-7.975-4.014-15.288-4.384-21.742-1.117-9.294 4.709-14.091 15.718-11.154 25.618 3.193 10.791 14.708 15.899 23.964 20.004l26.306 11.659 1.785.973c.444.241.949.347 1.454.347.181 0 .369-.015.557-.045a3.095 3.095 0 0 0 1.062-.257 3.26 3.26 0 0 0 1.8-1.924l12.411-28.237c4.127-9.259 9.263-20.782 4.421-30.946-4.451-9.311-15.356-14.261-25.418-11.522zm15.01 39.79L72.9 117.477l-25.425-11.281c-8.013-3.554-17.992-7.984-20.334-15.862-2.041-6.897 1.325-14.586 7.825-17.876 1.935-.981 4.021-1.464 6.251-1.464 3.065 0 6.409.928 9.986 2.777.919.475 1.777.981 2.531 1.547a3.272 3.272 0 0 0 3.148.43 3.292 3.292 0 0 0 2.041-2.437c.173-.921.475-1.879.919-3.086 1.235-4.256 4.157-9.734 11.086-11.628 7.042-1.886 14.671 1.524 17.773 8.021 3.539 7.417-.912 17.408-4.489 25.429z" fill="#CEA980" data-color="1"></path>
    </g>
</svg>