<svg width="24" height="24" viewBox="0 0 24 24" fill="none" xmlns="http://www.w3.org/2000/svg">
<g clip-path="url(#clip0_5_3)">
<path d="M2 21C1.45 21 0.979002 20.804 0.587002 20.412C0.195002 20.02 -0.000664969 19.5493 1.69779e-06 19V5C1.69779e-06 4.45 0.196002 3.979 0.588002 3.587C0.980002 3.195 1.45067 2.99934 2 3H22C22.55 3 23.021 3.196 23.413 3.588C23.805 3.98 24.0007 4.45067 24 5V19C24 19.55 23.804 20.021 23.412 20.413C23.02 20.805 22.5493 21.0007 22 21H2ZM9 14C9.83334 14 10.5417 13.7083 11.125 13.125C11.7083 12.5417 12 11.8333 12 11C12 10.1667 11.7083 9.45834 11.125 8.875C10.5417 8.29167 9.83334 8 9 8C8.16667 8 7.45834 8.29167 6.875 8.875C6.29167 9.45834 6 10.1667 6 11C6 11.8333 6.29167 12.5417 6.875 13.125C7.45834 13.7083 8.16667 14 9 14ZM19 18L21 16L19.5 14H17.85C17.75 13.7 17.6667 13.379 17.6 13.037C17.5333 12.695 17.5 12.3493 17.5 12C17.5 11.65 17.5333 11.3127 17.6 10.988C17.6667 10.6633 17.75 10.334 17.85 10H19.5L21 8L19 6C18.1 6.7 17.375 7.58767 16.825 8.663C16.275 9.73834 16 10.8507 16 12C16 13.15 16.275 14.2627 16.825 15.338C17.375 16.4133 18.1 17.3007 19 18ZM2.1 19H15.9C15.2 17.75 14.2333 16.7707 13 16.062C11.7667 15.3533 10.4333 14.9993 9 15C7.56667 15 6.23334 15.3543 5 16.063C3.76667 16.7717 2.8 17.7507 2.1 19Z" fill="black"/>
</g>
<defs>
<clipPath id="clip0_5_3">
<rect width="24" height="24" fill="white"/>
</clipPath>
</defs>
</svg>
